<?xml version="1.0" encoding="UTF-8"?>
<svg width="189px" height="32px" viewBox="0 0 189 32" version="1.1" xmlns="http://www.w3.org/2000/svg" xmlns:xlink="http://www.w3.org/1999/xlink">
    <!-- Generator: Sketch 47 (45396) - http://www.bohemiancoding.com/sketch -->
    <title>Logo NK</title>
    <desc>Created with Sketch.</desc>
    <defs></defs>
    <g id="Symbols" stroke="none" stroke-width="1" fill="none" fill-rule="evenodd">
        <g id="Navi-Final" transform="translate(-77.000000, -34.000000)" fill="#FFFFFF">
            <g id="Navi-01">
                <g>
                    <path d="M254.488166,57.2882734 C253.978893,57.2882734 253.688643,56.8739069 253.841781,56.3622542 C253.848904,56.3496431 257.280265,44.7347681 257.280265,44.7347681 C257.764609,42.9349759 256.304455,42.0575998 254.89416,42.0575998 L231.994675,42.0575998 C231.994675,42.0575998 231.610049,43.3223186 231.545945,43.560129 C231.602926,43.5403114 231.66525,43.5367082 231.715109,43.5367082 C232.229724,43.5367082 232.516413,43.9564796 232.365055,44.4699338 C232.363275,44.4807434 232.363275,44.4879497 232.35081,44.4969577 C232.204794,45.0158167 232.044534,45.5761124 232.00714,45.7022239 L231.793458,46.4462822 L231.79702,46.4462822 L228.146635,58.7727867 L232.933091,58.7727867 L232.934871,58.7763899 L233.16814,58.7727867 L233.627554,58.7727867 L233.629335,58.7763899 L236.124061,58.7763899 C236.124061,58.7763899 236.506906,57.5134726 236.571011,57.2756623 C236.514029,57.2846702 236.448144,57.2882734 236.398285,57.2882734 C235.885451,57.2882734 235.598762,56.8739069 235.750119,56.3622542 C235.753681,56.3496431 238.91616,45.6824064 238.91616,45.6824064 C239.377355,44.1492501 242.408065,44.0087258 241.859617,45.857161 L238.036506,58.7691835 L241.987825,58.7763899 L242.067956,58.7763899 L242.687631,58.7763899 L245.171673,58.7763899 C245.171673,58.7763899 245.545615,57.5134726 245.615061,57.2756623 C245.552737,57.2846702 245.499317,57.2882734 245.440555,57.2882734 C244.92594,57.2882734 244.651716,56.8739069 244.792389,56.3622542 C244.804854,56.3496431 245.365766,54.3895091 245.365766,54.3895091 L247.892545,45.8157244 C248.408941,44.0753848 251.420063,44.0753848 250.896544,45.8409467 L247.066311,58.7691835 L251.026533,58.7691835 L251.026533,58.7763899 L251.726339,58.7709851 L251.72812,58.7763899 L254.219284,58.7763899 C254.219284,58.7763899 254.593226,57.5134726 254.668015,57.2756623 C254.60391,57.2846702 254.546929,57.2882734 254.488166,57.2882734 M171.402386,45.5604385 L170.371375,49.0014826 L172.296285,49.0014826 L173.368252,45.473962 C173.749317,44.1948304 171.783451,44.1948304 171.402386,45.5604385 L171.402386,45.5604385 Z M177.358746,42.0185052 C178.736988,42.0185052 180.038662,43.3444782 179.605958,44.7947612 L177.688171,51.2967131 L169.687596,51.2967131 L168.93259,53.8315555 C168.665488,54.7449635 168.895195,55.013401 169.507748,55.013401 L176.57881,54.9845755 L175.478352,58.7372953 L163.788218,58.7066682 C161.852624,58.7066682 161.053101,57.4977988 161.441288,56.1934449 L164.890456,44.4974982 C165.342748,42.9877626 167.233825,42.0185052 168.799039,42.0185052 L177.358746,42.0185052 Z M115.937197,54.6810069 L118.488905,46.1288413 C118.677656,45.4856724 118.718612,45.0568931 118.618894,44.853313 C118.519176,44.6389233 118.170164,44.5398356 117.568295,44.5398356 L115.890899,44.5398356 C115.433266,44.5398356 115.100279,44.6443281 114.895502,44.8623209 C114.692505,45.0803138 114.516218,45.4262198 114.382667,45.9090469 L111.768636,54.6810069 C111.462359,55.7205265 111.75439,56.2375839 112.644728,56.2375839 L114.128031,56.2375839 C114.687163,56.2375839 115.105621,56.1060676 115.386968,55.8412333 C115.582842,55.6412564 115.766252,55.2557153 115.937197,54.6810069 L115.937197,54.6810069 Z M124.325959,42.0284139 L126.817123,42.0284139 C126.817123,42.0284139 126.43962,43.2859264 126.370174,43.5291415 C126.314973,43.5219352 126.263333,43.5129272 126.208132,43.5129272 C125.702421,43.5129272 125.159315,43.9272938 125.013299,44.4461528 C125.011519,44.449756 125.011519,44.4569623 125.004396,44.4713751 C124.842354,44.9884325 124.674971,45.5415218 124.188847,47.150345 L119.986453,61.2676337 C119.163781,63.6313247 117.60569,65.4797599 114.295414,65.4797599 L88.5415057,65.4797599 L89.2573372,63.0962514 L111.246898,63.0962514 C113.305359,63.0962514 113.951744,61.1631413 114.193916,60.4983532 C114.202819,60.4677261 114.396913,59.8389699 114.592787,59.2516503 L114.742364,58.7273865 L114.065707,58.716577 L113.075651,58.716577 C112.853067,58.7381961 112.580624,58.7436009 112.270786,58.7436009 L108.43165,58.7436009 C105.326152,58.7436009 104.147345,57.4644693 104.897009,54.9008014 L107.585829,45.8586023 C107.947306,44.6335185 108.565201,43.6948882 109.468003,43.0301001 C110.360121,42.3707168 111.401817,42.0320171 112.589527,42.0320171 L117.927992,42.0320171 C118.50315,42.0320171 118.918047,42.0896681 119.151316,42.1941606 C119.300893,42.2608195 119.434443,42.3671136 119.541284,42.4932251 L119.696203,42.0049932 L124.325959,42.0320171 L124.325959,42.0284139 Z M113.349875,61.1541333 C112.952785,61.7378497 112.432828,62.5089318 111.416062,62.5089318 L89.4282821,62.5089318 L89.8218113,61.2099827 C90.4770999,61.2388082 107.778142,61.2207923 109.044202,61.2207923 L112.72842,61.2207923 C112.926075,61.2207923 113.141536,61.2045779 113.349875,61.1541333 Z M141.780495,57.2372883 C141.842819,57.2372883 141.892678,57.2318835 141.956782,57.2156692 C141.885555,57.4624875 141.506271,58.7218016 141.506271,58.7218016 L127.866297,58.7218016 C126.456002,58.7218016 124.953112,57.8047904 125.39472,56.0067998 L128.779784,44.6387431 C128.790468,44.5792906 128.808275,44.5270443 128.829643,44.4693933 L128.831423,44.4567822 C128.838546,44.4405678 128.840327,44.4171471 128.842108,44.4135439 C128.97922,43.9108993 128.696092,43.512747 128.192161,43.512747 C128.145863,43.512747 128.087101,43.521755 128.028339,43.5271598 C128.028339,43.530763 128.024778,43.530763 128.022997,43.5343662 L128.022997,43.5271598 L128.017655,43.5271598 C128.092443,43.2875478 128.464604,42.0264322 128.464604,42.0264322 L128.471727,42.0264322 L135.553473,42.022829 L131.607496,55.2897655 C131.226432,56.568897 134.262483,56.5887146 134.636425,55.3131862 L137.822054,44.5702826 C137.823834,44.5630762 137.823834,44.5612746 137.823834,44.5612746 C137.827396,44.5270443 137.843422,44.4964172 137.852325,44.4603854 C137.852325,44.4603854 137.852325,44.4495758 137.854106,44.4477742 L137.863009,44.4261551 C138.012586,43.9145025 137.724116,43.5037391 137.218405,43.5037391 C137.159642,43.5037391 137.099099,43.512747 137.043898,43.5235566 C137.108003,43.2857462 137.483725,42.022829 137.483725,42.022829 L139.615194,42.022829 L139.616974,42.0264322 L145.368556,42.0264322 L141.385185,55.4609169 C141.369159,55.540187 141.340668,55.6176555 141.313958,55.6897193 C141.232047,55.9797759 141.13411,56.3148723 141.13411,56.3148723 C140.986314,56.8319297 141.271222,57.2372883 141.780495,57.2372883 Z M181.823077,43.5037391 C181.771437,43.5037391 181.710894,43.512747 181.650351,43.521755 C181.721578,43.2857462 182.086617,42.0174242 182.086617,42.0174242 L195.735494,42.0174242 C197.14935,42.0174242 198.646898,42.9326339 198.192826,44.732426 L194.816665,56.1004827 C194.80242,56.1563321 194.786394,56.2121815 194.770368,56.2698325 C194.770368,56.2752373 194.766806,56.2842452 194.766806,56.2842452 C194.759684,56.3004596 194.759684,56.3148723 194.759684,56.3292851 C194.622572,56.8319297 194.905699,57.2318835 195.40785,57.2318835 C195.454147,57.2318835 195.51469,57.2246772 195.56811,57.2102644 L195.573452,57.2084628 L195.575233,57.2102644 C195.511129,57.4480748 195.137187,58.7163968 195.137187,58.7163968 L188.044757,58.7163968 L192.001418,45.4476587 C192.380701,44.1757335 189.342869,44.1523128 188.967147,45.4260396 L185.78686,56.1689432 C185.779738,56.1725464 185.779738,56.1797528 185.779738,56.1797528 C185.770834,56.2121815 185.76015,56.2464118 185.747686,56.2752373 C185.744124,56.2842452 185.744124,56.28965 185.744124,56.28965 L185.742344,56.3148723 C185.592767,56.8265249 185.872333,57.2372883 186.390509,57.2372883 C186.44571,57.2372883 186.504473,57.2318835 186.565016,57.2174708 C186.490227,57.4534796 186.114505,58.7163968 186.114505,58.7163968 L183.984817,58.7163968 L178.224332,58.7163968 L182.211264,45.2819121 C182.239755,45.2008404 182.262904,45.1251735 182.280711,45.0495065 C182.369744,44.7522436 182.46412,44.4333615 182.46412,44.4207503 C182.611916,43.9108993 182.328789,43.5037391 181.823077,43.5037391 Z M159.284534,42.0231893 L163.949904,42.0376021 L158.173393,61.5614737 C157.505639,63.5216077 156.366007,64.460238 155.219252,64.9845018 C154.469588,65.3195983 153.164353,65.4907497 151.307108,65.4907497 L122.536736,65.4907497 L123.234761,63.0964316 L148.732252,63.0964316 C150.219116,63.0964316 151.332038,61.8857605 151.697076,60.5922162 C151.908977,59.7058321 152.183201,58.7167571 152.183201,58.7167571 L146.458329,58.7167571 C145.03735,58.7167571 143.326121,57.8411825 143.901279,55.9981521 L147.024584,45.514678 L147.021023,45.514678 C147.021023,45.514678 147.33086,44.485968 147.334422,44.4571425 C147.334422,44.4499361 147.334422,44.4463329 147.339764,44.4409282 L147.345106,44.4175074 C147.48934,43.9112596 147.200871,43.5040994 146.69694,43.5040994 C146.636397,43.5040994 146.582977,43.5040994 146.522434,43.5131074 C146.595441,43.2789002 146.967602,42.0141814 146.967602,42.0141814 L154.108111,42.0141814 L150.215554,55.2072525 C149.814902,56.5278207 152.78685,56.6647418 153.242703,55.1225776 L156.070415,45.514678 L156.059731,45.514678 C156.059731,45.514678 156.369569,44.485968 156.378472,44.4571425 C156.378472,44.4499361 156.387375,44.4499361 156.387375,44.4481345 C156.394498,44.4247138 156.394498,44.4139042 156.408743,44.3886819 C156.408743,44.3526501 156.414085,44.322023 156.414085,44.2968007 C156.422989,44.2571656 156.42655,44.2301417 156.42655,44.1941098 C156.440796,43.7959576 156.170133,43.5040994 155.748113,43.5040994 C155.685789,43.5040994 155.630588,43.5040994 155.571826,43.5131074 C155.639492,43.2789002 156.024118,42.0141814 156.024118,42.0141814 L158.146683,42.0141814 L158.148463,42.0231893 L159.284534,42.0231893 Z M150.751538,61.2101629 C150.375815,61.7866729 149.857639,62.509112 148.865802,62.509112 L123.407486,62.509112 L123.779647,61.2209724 C124.167835,61.2371868 145.055157,61.2299804 146.581196,61.2299804 L150.20309,61.2299804 C150.390061,61.2299804 150.580593,61.2299804 150.751538,61.2101629 Z M226.698056,57.2320637 C226.751476,57.2320637 226.810238,57.2284605 226.869001,57.2104446 C226.792432,57.4518581 226.423832,58.716577 226.423832,58.716577 L219.279762,58.716577 L222.499223,47.8962048 L222.716466,47.1701625 C222.759202,47.0332414 223.067259,45.9432772 223.079723,45.9342692 C223.227519,45.4154102 222.940831,44.9992421 222.431558,44.9992421 C222.371015,44.9992421 222.310472,45.0100516 222.25349,45.0136548 C222.326498,44.7830508 222.70044,43.5219352 222.70044,43.5219352 L229.830264,43.5219352 L226.361508,55.2070723 L226.04989,56.3024413 C225.907436,56.8194987 226.188783,57.2320637 226.698056,57.2320637 Z M106.175,40.4720876 L108.660823,40.4720876 C108.660823,40.4720876 108.295784,41.738608 108.222777,41.9710136 C108.169356,41.969212 108.117717,41.9566009 108.062516,41.9566009 C107.542559,41.9566009 107.013698,42.3709674 106.858779,42.8826201 C106.856999,42.8988344 102.594062,57.2142984 102.594062,57.2142984 L93.3844086,57.2287112 L90.5228632,44.745468 L84.3830944,65.469201 L77.2283407,65.469201 C77.2283407,65.469201 77.6058439,64.2044822 77.6806322,63.9684734 C77.7251491,63.9756798 77.7856921,63.988291 77.8444544,63.988291 C78.3555082,63.988291 78.8932722,63.5703212 79.0375069,63.0604702 C79.0481909,63.047859 85.0276989,42.909644 85.0366023,42.9078424 C85.186179,42.3889834 84.8977096,41.9710136 84.3937785,41.9710136 C84.3278935,41.9710136 84.2744732,41.9800216 84.215711,41.9926327 C84.2833766,41.756624 84.6573185,40.4720876 84.6573185,40.4720876 L87.1538254,40.4720876 L87.8500694,40.4720876 L87.8500694,40.4810956 L96.3670399,40.4810956 L99.6559474,54.6650433 L103.869025,40.4720876 L105.475195,40.4720876 L105.628333,40.4720876 L106.175,40.4720876 Z M215.186345,44.5373134 L218.487718,58.7446818 L211.633898,58.7446818 L209.42408,49.2610923 L206.952502,51.2842821 L204.739123,58.7230627 L196.791969,58.7230627 C196.791969,58.7230627 197.174814,57.4601455 197.240699,57.2241367 C197.290558,57.2367478 197.345759,57.2421526 197.404521,57.2421526 C197.913794,57.2421526 198.444435,56.8313892 198.602915,56.3215382 L198.610038,56.2981175 C198.608257,56.2963159 198.6136,56.2837047 198.6136,56.2837047 C198.622503,56.2548792 198.926998,55.2243676 198.926998,55.2243676 L202.244397,44.0076449 L202.235493,44.0076449 C202.235493,44.0076449 202.541769,42.97353 202.554234,42.9411013 C202.554234,42.9411013 202.557796,42.933895 202.561357,42.9284902 L202.566699,42.9014663 C202.707372,42.39702 202.418903,41.9880582 201.920314,41.9880582 C201.861551,41.9880582 201.799228,41.993463 201.745808,41.9970662 C201.818815,41.7700654 202.187415,40.503545 202.187415,40.503545 L204.317103,40.503545 L205.449612,40.503545 L205.449612,40.5071482 L210.129227,40.5071482 L208.118845,47.3009582 C208.118845,47.3009582 213.841936,42.6258224 213.971925,42.5087188 C214.244368,42.2673053 214.401068,41.8799626 213.580176,42.0060742 L214.018222,40.503545 L220.108132,40.503545 L215.186345,44.5373134 Z M253.677781,63.0976927 L253.857629,62.4905556 L253.902146,62.4905556 L253.724079,63.0976927 L253.677781,63.0976927 Z M159.574428,62.4905556 L253.857629,62.4905556 L254.240475,61.211424 L159.94837,61.211424 L158.68409,65.4812012 L252.967292,65.4812012 L253.677781,63.0976927 L159.392799,63.0976927 L159.574428,62.4905556 Z M227.835373,39.4642055 C226.866686,39.4642055 226.102776,38.6697027 226.133048,37.6788261 C226.1651,36.7041639 226.978868,35.8952483 227.945775,35.8952483 C228.918024,35.8952483 229.692618,36.7041639 229.660565,37.6788261 C229.630294,38.6697027 228.807622,39.4642055 227.835373,39.4642055 M226.868466,34.8124905 C224.973828,34.9404036 223.494087,36.5852587 223.561752,38.4985513 C223.629418,40.3992327 225.21778,41.8405077 227.108858,41.710793 C229.001716,41.5828798 230.481457,39.9326199 230.41023,38.0283353 C230.340783,36.1186459 228.752421,34.6809741 226.868466,34.8124905 M262.29073,37.2958073 L262.629058,37.2958073 C263.020807,37.2958073 263.348451,37.1624894 263.348451,36.8382025 C263.348451,36.5499475 263.143673,36.3589785 262.687821,36.3589785 C262.490166,36.3589785 262.363738,36.3769945 262.29073,36.396812 L262.29073,37.2958073 Z M262.2658,39.0559644 L262.2658,37.8128647 L262.604129,37.8128647 C263.008342,37.8128647 263.195313,37.9660002 263.257637,38.317311 C263.348451,38.6758281 263.410775,38.9442656 263.501589,39.0559644 L264.272622,39.0559644 C264.199614,38.9658847 264.151536,38.778519 264.055379,38.2920886 C263.959223,37.8723173 263.786497,37.625499 263.487344,37.5246097 L263.487344,37.4903794 C263.864847,37.3732758 264.126606,37.1084415 264.126606,36.742718 C264.126606,36.4580662 263.993056,36.2040415 263.825672,36.0725251 C263.592404,35.9193897 263.327083,35.820302 262.744802,35.820302 C262.228406,35.820302 261.834877,35.8797546 261.546408,35.935604 L261.546408,39.0559644 L262.2658,39.0559644 Z M262.744802,34.9213067 C261.379024,34.9213067 260.348013,36.0545092 260.348013,37.4291252 C260.348013,38.8325668 261.379024,39.9423485 262.778635,39.9423485 C264.151536,39.9621661 265.152275,38.8325668 265.152275,37.4291252 C265.152275,36.0545092 264.151536,34.9213067 262.76439,34.9213067 L262.744802,34.9213067 Z M262.778635,34.2907489 C264.562872,34.2907489 265.953579,35.6887857 265.953579,37.4291252 C265.953579,39.2109015 264.562872,40.5909223 262.76439,40.5909223 C260.978372,40.5909223 259.557393,39.2109015 259.557393,37.4291252 C259.557393,35.6887857 260.978372,34.2907489 262.76439,34.2907489 L262.778635,34.2907489 Z" id="Logo-NK"></path>
                </g>
            </g>
        </g>
    </g>
</svg>